<?xml version="1.0" encoding="utf-8"?>
<!-- Generator: Adobe Illustrator 24.3.0, SVG Export Plug-In . SVG Version: 6.00 Build 0)  -->
<svg version="1.1" id="Layer_1" xmlns="http://www.w3.org/2000/svg" xmlns:xlink="http://www.w3.org/1999/xlink" x="0px" y="0px"
	 viewBox="0 0 86 88" style="enable-background:new 0 0 86 88;" xml:space="preserve">
<style type="text/css">
	.st0{fill:url(#SVGID_1_);}
</style>
<linearGradient id="SVGID_1_" gradientUnits="userSpaceOnUse" x1="43" y1="88" x2="43" y2="0" gradientTransform="matrix(1 0 0 -1 0 88)">
	<stop  offset="0" style="stop-color:#D9E9EE"/>
	<stop  offset="1" style="stop-color:#1BBFEE"/>
</linearGradient>
<path class="st0" d="M75.9,48.3c0.2-1.4,0.3-2.8,0.3-4.3s-0.1-2.9-0.3-4.3l9.3-7.3c0.8-0.7,1.1-1.9,0.6-2.8l-8.8-15.2
	c-0.6-1-1.7-1.3-2.7-1l-11,4.4c-2.3-1.8-4.8-3.2-7.5-4.3L54.1,1.9C53.9,0.8,53,0,51.8,0H34.2c-1.1,0-2,0.8-2.2,1.9l-1.7,11.7
	c-2.7,1.1-5.2,2.6-7.5,4.3l-11-4.4c-1-0.4-2.2,0-2.7,1L0.3,29.6c-0.6,1-0.3,2.1,0.6,2.8l9.3,7.3C10,41.1,9.8,42.6,9.8,44
	s0.1,2.9,0.3,4.3l-9.3,7.3c-0.8,0.7-1.1,1.9-0.6,2.8l8.8,15.2c0.6,1,1.7,1.3,2.7,1l11-4.4c2.3,1.8,4.8,3.2,7.5,4.3l1.7,11.7
	c0.2,1.1,1.1,1.9,2.2,1.9h17.7c1.1,0,2-0.8,2.2-1.9l1.7-11.7c2.7-1.1,5.2-2.6,7.5-4.3l11,4.4c1,0.4,2.2,0,2.7-1l8.8-15.2
	c0.6-1,0.3-2.1-0.6-2.8L75.9,48.3z M43,60.5c-9.1,0-16.6-7.4-16.6-16.5S33.9,27.5,43,27.5S59.6,34.9,59.6,44S52.1,60.5,43,60.5z"/>
</svg>
