<?xml version="1.0" encoding="utf-8"?>
<!-- Generator: Adobe Illustrator 24.3.0, SVG Export Plug-In . SVG Version: 6.00 Build 0)  -->
<svg version="1.1" id="Layer_1" xmlns="http://www.w3.org/2000/svg" xmlns:xlink="http://www.w3.org/1999/xlink" x="0px" y="0px"
	 viewBox="0 0 64 92" style="enable-background:new 0 0 64 92;" xml:space="preserve">
<style type="text/css">
	.st0{fill:url(#SVGID_1_);}
</style>
<linearGradient id="SVGID_1_" gradientUnits="userSpaceOnUse" x1="32" y1="92" x2="32" y2="0" gradientTransform="matrix(1 0 0 -1 0 92)">
	<stop  offset="0" style="stop-color:#D9E9EE"/>
	<stop  offset="1" style="stop-color:#1BBFEE"/>
</linearGradient>
<path class="st0" d="M32,0c8.5,0,16.6,3.4,22.6,9.4c6,6,9.4,14.2,9.4,22.8c0,10.9-5.4,20.6-13.7,26.4V69c0,1.2-0.5,2.4-1.3,3.3
	s-2,1.3-3.2,1.3H18.3c-1.2,0-2.4-0.5-3.2-1.3s-1.3-2-1.3-3.3V58.6C5.4,52.8,0,43.1,0,32.2c0-8.5,3.4-16.7,9.4-22.8
	C15.4,3.4,23.5,0,32,0z M18.3,87.4v-4.6h27.4v4.6c0,1.2-0.5,2.4-1.3,3.3c-0.9,0.9-2,1.3-3.2,1.3H22.9c-1.2,0-2.4-0.5-3.2-1.3
	C18.8,89.8,18.3,88.6,18.3,87.4z M32,9.2c-6.1,0-11.9,2.4-16.2,6.7c-4.3,4.3-6.7,10.2-6.7,16.3c0,9.4,5.6,17.5,13.7,21.1v11.1h18.3
	V53.3c8.1-3.5,13.7-11.6,13.7-21.1c0-6.1-2.4-12-6.7-16.3C43.9,11.6,38.1,9.2,32,9.2z"/>
</svg>
