<?xml version="1.0" standalone="no"?>
<!DOCTYPE svg PUBLIC "-//W3C//DTD SVG 20010904//EN"
 "http://www.w3.org/TR/2001/REC-SVG-20010904/DTD/svg10.dtd">
<svg version="1.0" xmlns="http://www.w3.org/2000/svg"
 width="700.000000pt" height="700.000000pt" viewBox="0 0 700.000000 700.000000"
 preserveAspectRatio="xMidYMid meet">
<metadata>
Created by potrace 1.14, written by Peter Selinger 2001-2017
</metadata>
<g transform="translate(0.000000,700.000000) scale(0.100000,-0.100000)"
fill="#000000" stroke="none">
<path d="M1382 6000 c-33 -8 -89 -56 -109 -93 -16 -30 -17 -191 -17 -2397 0
-1301 3 -2377 7 -2392 9 -35 52 -85 91 -105 27 -15 71 -17 321 -18 160 -1 304
2 322 7 41 11 89 51 110 92 16 29 17 146 18 1483 0 799 3 1449 8 1444 6 -6
124 -196 177 -286 18 -31 582 -955 731 -1198 46 -75 89 -145 94 -155 61 -106
147 -241 162 -254 42 -38 90 -49 211 -47 71 1 130 7 149 15 36 15 74 60 112
130 15 27 45 81 68 119 22 39 50 86 60 105 25 44 284 493 311 540 12 19 27 46
35 60 7 14 85 149 172 300 87 151 163 284 169 295 53 98 251 433 254 430 2 -2
4 -660 4 -1462 -1 -1037 2 -1468 10 -1493 17 -53 55 -97 96 -112 44 -15 617
-20 669 -6 41 11 89 51 110 92 15 28 17 223 17 2406 0 2194 -1 2377 -17 2406
-21 41 -69 81 -110 92 -18 5 -142 8 -277 8 -327 -2 -294 15 -442 -236 -47 -80
-146 -248 -220 -375 -74 -126 -280 -477 -458 -780 -178 -302 -368 -626 -423
-720 -214 -365 -218 -372 -247 -453 -13 -35 -26 -59 -31 -55 -4 4 -19 36 -32
70 -27 66 -47 101 -392 663 -313 511 -567 925 -590 964 -11 19 -127 209 -258
422 -132 214 -244 398 -250 409 -18 30 -57 65 -86 77 -27 12 -486 19 -529 8z"/>
</g>
</svg>
