<svg width="170" height="160" viewBox="0 0 170 160" fill="none" xmlns="http://www.w3.org/2000/svg">
<path fill-rule="evenodd" clip-rule="evenodd" d="M0 0H4V1H1V4H0V0Z" fill="#1BBFEE"/>
<path fill-rule="evenodd" clip-rule="evenodd" d="M170 0H166V1H169V4H170V0Z" fill="#1BBFEE"/>
<path fill-rule="evenodd" clip-rule="evenodd" d="M0 160H4V159H1V156H0V160Z" fill="#1BBFEE"/>
<path fill-rule="evenodd" clip-rule="evenodd" d="M170 160H166V159H169V156H170V160Z" fill="#1BBFEE"/>
<rect x="27.3213" y="25.6454" width="2.02381" height="1.89966" fill="#264573"/>
<rect x="27.3213" y="52.2406" width="2.02381" height="1.89966" fill="#264573"/>
<rect x="27.3213" y="78.8359" width="2.02381" height="1.89966" fill="#264573"/>
<rect x="27.3213" y="105.431" width="2.02381" height="1.89966" fill="#264573"/>
<rect x="27.3213" y="132.026" width="2.02381" height="1.89966" fill="#264573"/>
<rect x="55.6548" y="25.6454" width="2.02382" height="1.89966" fill="#264573"/>
<rect x="55.6548" y="52.2406" width="2.02382" height="1.89966" fill="#264573"/>
<rect x="55.6548" y="78.8359" width="2.02382" height="1.89966" fill="#264573"/>
<rect x="55.6548" y="105.431" width="2.02382" height="1.89966" fill="#264573"/>
<rect x="55.6548" y="132.026" width="2.02382" height="1.89966" fill="#264573"/>
<rect x="83.9883" y="25.6454" width="2.02381" height="1.89966" fill="#264573"/>
<rect x="83.9883" y="52.2406" width="2.02381" height="1.89966" fill="#264573"/>
<rect x="83.9883" y="78.8359" width="2.02381" height="1.89966" fill="#264573"/>
<rect x="83.9883" y="105.431" width="2.02381" height="1.89966" fill="#264573"/>
<rect x="83.9883" y="132.026" width="2.02381" height="1.89966" fill="#264573"/>
<rect x="112.321" y="25.6454" width="2.02381" height="1.89966" fill="#264573"/>
<rect x="112.321" y="52.2406" width="2.02381" height="1.89966" fill="#264573"/>
<rect x="112.321" y="78.8359" width="2.02381" height="1.89966" fill="#264573"/>
<rect x="112.321" y="105.431" width="2.02381" height="1.89966" fill="#264573"/>
<rect x="112.321" y="132.026" width="2.02381" height="1.89966" fill="#264573"/>
<rect x="140.654" y="25.6454" width="2.02379" height="1.89966" fill="#264573"/>
<rect x="140.654" y="52.2406" width="2.02379" height="1.89966" fill="#264573"/>
<rect x="140.654" y="78.8359" width="2.02379" height="1.89966" fill="#264573"/>
<rect x="140.654" y="105.431" width="2.02379" height="1.89966" fill="#264573"/>
<rect x="140.654" y="132.026" width="2.02379" height="1.89966" fill="#264573"/>
</svg>
