<svg width="120" height="37" viewBox="0 0 120 37" fill="none" xmlns="http://www.w3.org/2000/svg">
<path d="M20.8861 9.59027L21.2661 5.57027H21.0761L19.6161 9.24027L12.6561 21.3403H11.6961L4.30613 9.21027L2.92613 5.57027H2.73613L3.27613 9.55027V27.5803H0.286133V0.780273H2.65613L11.0461 14.4903L12.3061 17.4803H12.3861L13.5761 14.4103L21.5761 0.780273H24.0661V27.5803H20.8861V9.59027Z" fill="#FFFFFF"/>
<path d="M34.3359 15.1202H27.0859V17.9502H34.3359V15.1202Z" fill="#FFFFFF"/>
<path d="M87.6963 27.5602V16.6502C87.7864 15.1022 87.4909 13.556 86.8363 12.1502C86.5009 11.6307 86.028 11.2144 85.47 10.9478C84.9121 10.6812 84.2911 10.5748 83.6763 10.6402C82.4652 10.5915 81.2767 10.9782 80.3263 11.7302C79.4537 12.4481 78.8077 13.4032 78.4663 14.4802V27.5602H75.4062V8.42024H77.5463L78.1263 10.7602H78.2763C78.9322 9.90994 79.7781 9.225 80.7463 8.76024C81.8957 8.20643 83.1609 7.93556 84.4363 7.97024C85.3689 7.95438 86.2989 8.07567 87.1963 8.33024C87.9734 8.55841 88.6679 9.0064 89.1963 9.62024C89.7743 10.3432 90.1812 11.1876 90.3863 12.0902C90.682 13.3752 90.8164 14.692 90.7863 16.0102V27.5602H87.6963Z" fill="#FFFFFF"/>
<path d="M91.4463 8.42024H94.4463V4.63024L97.5063 3.75024V8.42024H102.716V11.1002H97.5063V21.7102C97.4311 22.6742 97.6032 23.6414 98.0063 24.5202C98.1844 24.7977 98.4352 25.0208 98.7315 25.1654C99.0277 25.31 99.358 25.3705 99.6863 25.3402C100.257 25.3523 100.826 25.2816 101.376 25.1302C101.826 24.9902 102.376 24.8102 102.906 24.5802L103.596 26.9102C102.871 27.2519 102.114 27.5231 101.336 27.7202C100.471 27.9254 99.5851 28.0261 98.6963 28.0202C98.0804 28.085 97.458 27.9986 96.8829 27.7686C96.3079 27.5386 95.7976 27.1719 95.3963 26.7002C94.6462 25.3545 94.3154 23.8153 94.4463 22.2802V11.1002H91.4463V8.42024Z" fill="#FFFFFF"/>
<path d="M105.646 9.84023C106.696 9.22111 107.842 8.78172 109.036 8.54023C110.35 8.25105 111.691 8.10685 113.036 8.11023C114.128 8.06972 115.217 8.2535 116.236 8.65023C116.959 8.94732 117.59 9.43032 118.066 10.0502C118.485 10.6102 118.775 11.2555 118.916 11.9402C119.055 12.6215 119.125 13.3149 119.126 14.0102C119.126 15.5402 119.126 17.0102 119.006 18.4902C118.886 19.9702 118.896 21.3202 118.896 22.6202C118.896 23.5702 118.896 24.4602 119.006 25.3002C119.075 26.0913 119.216 26.8745 119.426 27.6402H117.166L116.366 24.9602H116.176C115.928 25.3402 115.64 25.6923 115.316 26.0102C114.945 26.3748 114.524 26.6845 114.066 26.9302C113.535 27.2193 112.971 27.4442 112.386 27.6002C111.675 27.789 110.942 27.8799 110.206 27.8702C109.443 27.8682 108.685 27.7363 107.966 27.4802C107.294 27.2396 106.675 26.8693 106.146 26.3902C105.632 25.9073 105.22 25.3257 104.936 24.6802C104.634 23.9656 104.484 23.1959 104.496 22.4202C104.461 21.4377 104.7 20.4648 105.186 19.6102C105.659 18.8469 106.329 18.2251 107.126 17.8102C108.062 17.3101 109.077 16.9719 110.126 16.8102C111.4 16.6137 112.687 16.52 113.976 16.5302H114.976C115.331 16.529 115.685 16.5524 116.036 16.6002C116.106 15.8402 116.146 15.1502 116.146 14.5302C116.256 13.4786 115.955 12.4253 115.306 11.5902C114.431 10.9277 113.337 10.6237 112.246 10.7402C111.778 10.7458 111.31 10.7792 110.846 10.8402C110.346 10.9102 109.846 11.0002 109.316 11.1202C108.808 11.2324 108.307 11.376 107.816 11.5502C107.386 11.7024 106.971 11.8931 106.576 12.1202L105.646 9.84023ZM111.066 25.1902C111.714 25.1984 112.359 25.1005 112.976 24.9002C113.497 24.7324 113.989 24.4863 114.436 24.1702C115.149 23.6667 115.706 22.974 116.046 22.1702V18.9902C115.686 18.9902 115.316 18.9402 114.946 18.9302H113.856C113.084 18.9325 112.313 18.9759 111.546 19.0602C110.859 19.1318 110.186 19.3002 109.546 19.5602C109.011 19.7755 108.537 20.1189 108.166 20.5602C107.808 21.0107 107.623 21.575 107.646 22.1502C107.641 22.5679 107.728 22.9816 107.9 23.3619C108.073 23.7422 108.328 24.0796 108.646 24.3502C109.324 24.9369 110.2 25.2442 111.096 25.2102" fill="#FFFFFF"/>
<path d="M52.786 19.3903C52.4995 20.2054 52.106 20.9788 51.616 21.6903C50.8621 22.7388 49.863 23.5868 48.706 24.1603C47.2975 24.8106 45.7564 25.1223 44.206 25.0703H43.476H42.366H41.256C41.0114 25.0708 40.7672 25.0507 40.526 25.0103V3.48029L41.276 3.41029L42.276 3.33029C42.666 3.33029 43.056 3.33029 43.446 3.33029H44.536C46.0606 3.28364 47.5719 3.62789 48.926 4.33029C50.0334 4.93363 50.9826 5.79026 51.696 6.83029C52.3933 7.872 52.8886 9.03555 53.156 10.2603C53.4332 11.4978 53.5741 12.7621 53.576 14.0303C53.5761 15.1773 53.4723 16.322 53.266 17.4503C54.2884 17.8743 55.3457 18.2089 56.426 18.4503C56.7722 16.9889 56.9467 15.4921 56.946 13.9903C56.9854 12.1292 56.7495 10.2724 56.246 8.48029C55.7921 6.91953 55.0153 5.47157 53.966 4.23029C52.8979 3.02235 51.5624 2.08065 50.066 1.48029C48.2943 0.779756 46.4007 0.439786 44.496 0.480287C43.956 0.480287 43.376 0.480287 42.746 0.480287H40.856C40.206 0.480287 39.576 0.480287 38.976 0.560287C38.376 0.640287 37.836 0.660287 37.356 0.730287V27.6003C37.7729 27.6673 38.1938 27.7074 38.616 27.7203L40.526 27.8103C41.216 27.8103 41.886 27.8803 42.526 27.8903H44.116C46.1602 27.9556 48.1932 27.5626 50.066 26.7403C51.6211 26.0303 52.9904 24.9691 54.066 23.6403C54.9288 22.5603 55.6048 21.3435 56.066 20.0403C54.98 19.9115 53.9065 19.6941 52.856 19.3903" fill="#FFFFFF"/>
<path d="M59.0659 36.2103V31.7103H60.5659C60.8272 31.708 61.0881 31.728 61.3459 31.7703C61.5913 31.817 61.8214 31.9234 62.0159 32.0803C62.2434 32.2761 62.4216 32.5227 62.5359 32.8003C62.676 33.1637 62.7439 33.5509 62.7359 33.9403C62.7592 34.5262 62.5869 35.1032 62.2459 35.5803C62.0465 35.8051 61.7966 35.9795 61.5167 36.089C61.2368 36.1985 60.935 36.2401 60.6359 36.2103H59.0659ZM59.6559 35.6803H60.6559C60.9684 35.6955 61.2801 35.6373 61.5659 35.5103C61.7881 35.3781 61.9576 35.1732 62.0459 34.9303C62.1614 34.6099 62.2157 34.2707 62.2059 33.9303C62.213 33.6844 62.1861 33.4387 62.1259 33.2003C62.0816 33.0107 61.9963 32.8332 61.8759 32.6803C61.7699 32.5393 61.6284 32.4289 61.4659 32.3603C61.2034 32.2657 60.9245 32.2248 60.6459 32.2403H59.6959L59.6559 35.6803Z" fill="#FFFFFF"/>
<path d="M64.7061 36.2103V31.7103H67.9561V32.2403H65.2961V33.6203H67.7861V34.1503H65.2961V35.6803H68.0561V36.2103H64.7061Z" fill="#FFFFFF"/>
<path d="M70.0161 36.2103V31.7103H70.6261L72.9861 35.2503V31.7103H73.5561V36.2103H72.9461L70.5861 32.6703V36.2103H70.0161Z" fill="#FFFFFF"/>
<path d="M76.836 36.2103V32.2403H75.356V31.7103H78.916V32.2403H77.426V36.2103H76.836Z" fill="#FFFFFF"/>
<path d="M80.1763 36.2103L81.9063 31.7103H82.5463L84.3963 36.2103H83.7163L83.1863 34.8503H81.3063L80.8163 36.2103H80.1763ZM81.4763 34.3603H83.0063L82.5363 33.1203C82.3763 32.7003 82.2763 32.3903 82.2163 32.1903C82.1549 32.4786 82.0747 32.7625 81.9763 33.0403L81.4763 34.3603Z" fill="#FFFFFF"/>
<path d="M85.9761 36.2103V31.7103H86.5761V35.6803H88.7861V36.2103H85.9761Z" fill="#FFFFFF"/>
<path d="M97.1261 34.6303L97.7261 34.7803C97.6594 35.2202 97.4305 35.6191 97.0844 35.8986C96.7383 36.1781 96.3001 36.3178 95.8561 36.2903C95.5542 36.315 95.2509 36.266 94.9722 36.1475C94.6935 36.0291 94.4478 35.8447 94.2561 35.6103C93.9071 35.1211 93.7279 34.531 93.7461 33.9303C93.7226 33.617 93.7647 33.3022 93.8697 33.006C93.9748 32.7098 94.1404 32.4388 94.3561 32.2103C94.7651 31.8296 95.3075 31.6249 95.8661 31.6403C96.2696 31.606 96.672 31.7187 96.9991 31.9576C97.3261 32.1965 97.5559 32.5454 97.6461 32.9403L97.0561 33.0803C96.9977 32.808 96.8456 32.5647 96.6263 32.3929C96.4071 32.2212 96.1345 32.1318 95.8561 32.1403C95.6459 32.128 95.4357 32.164 95.2416 32.2455C95.0475 32.3269 94.8745 32.4517 94.7361 32.6103C94.4628 32.9942 94.3288 33.4599 94.3561 33.9303C94.309 34.4353 94.4556 34.9393 94.7661 35.3403C94.8947 35.4769 95.0496 35.5863 95.2214 35.6619C95.3932 35.7375 95.5784 35.7777 95.7661 35.7803C96.0916 35.7946 96.4102 35.6831 96.6559 35.4691C96.9016 35.255 97.0556 34.9547 97.0861 34.6303" fill="#FFFFFF"/>
<path d="M99.5659 36.2103V31.7103H100.156V35.6803H102.376V36.2103H99.5659Z" fill="#FFFFFF"/>
<path d="M104.916 31.7103H104.326V36.2103H104.916V31.7103Z" fill="#FFFFFF"/>
<path d="M107.096 36.2103V31.7103H107.706L110.076 35.2503V31.7103H110.646V36.2103H110.036L107.666 32.6703V36.2103H107.096Z" fill="#FFFFFF"/>
<path d="M113.476 31.7103H112.886V36.2103H113.476V31.7103Z" fill="#FFFFFF"/>
<path d="M118.876 34.6303L119.466 34.7803C119.402 35.2193 119.175 35.6181 118.83 35.8978C118.486 36.1775 118.049 36.3175 117.606 36.2903C117.304 36.315 117.001 36.266 116.722 36.1475C116.444 36.0291 116.198 35.8447 116.006 35.6103C115.654 35.1223 115.471 34.5321 115.486 33.9303C115.464 33.6162 115.508 33.301 115.614 33.0048C115.721 32.7086 115.889 32.438 116.106 32.2103C116.515 31.8286 117.057 31.6238 117.616 31.6403C118.019 31.6042 118.421 31.7164 118.747 31.9558C119.073 32.1951 119.3 32.5452 119.386 32.9403L118.806 33.0803C118.748 32.8079 118.596 32.5647 118.376 32.3929C118.157 32.2212 117.884 32.1318 117.606 32.1403C117.396 32.128 117.186 32.164 116.992 32.2454C116.797 32.3269 116.625 32.4517 116.486 32.6103C116.228 33.019 116.092 33.4922 116.092 33.9753C116.092 34.4584 116.228 34.9316 116.486 35.3403C116.615 35.4769 116.77 35.5863 116.941 35.6619C117.113 35.7374 117.298 35.7777 117.486 35.7803C117.812 35.7945 118.13 35.6831 118.376 35.4691C118.622 35.255 118.776 34.9547 118.806 34.6303" fill="#FFFFFF"/>
<path d="M70.0663 24.8803C69.2294 25.183 68.3463 25.3386 67.4563 25.3403C66.4842 25.3664 65.5163 25.2033 64.6063 24.8603C63.8548 24.5797 63.1919 24.1032 62.6863 23.4803C62.1719 22.8297 61.8036 22.0759 61.6063 21.2703C61.5118 20.8784 61.4417 20.4809 61.3963 20.0803C60.3473 20.197 59.2916 20.2438 58.2363 20.2203C58.3088 20.861 58.4258 21.4959 58.5863 22.1203C58.8804 23.2652 59.4006 24.3396 60.1163 25.2803C60.8157 26.1568 61.7233 26.8444 62.7563 27.2803C63.9555 27.7815 65.2471 28.0234 66.5463 27.9903C67.799 27.9959 69.0456 27.8174 70.2463 27.4603C71.2916 27.1564 72.2715 26.6614 73.1363 26.0003L71.9863 23.7803C71.404 24.2761 70.7219 24.641 69.9863 24.8503" fill="#B92716"/>
<path d="M65.7661 18.5603C68.6805 17.7586 71.4021 16.374 73.7661 14.4903C73.7584 13.9032 73.6812 13.3192 73.5361 12.7503C73.4568 12.3618 73.3361 11.983 73.1761 11.6203C72.84 10.7716 72.2986 10.0196 71.6006 9.43145C70.9025 8.84333 70.0695 8.43749 69.1761 8.25028C68.3223 8.06063 67.4507 7.9634 66.5761 7.96028C65.408 7.89039 64.2393 8.08523 63.1571 8.53024C62.0748 8.97524 61.1071 9.65894 60.3261 10.5303C58.8194 12.2436 58.0661 14.7303 58.0661 17.9903C58.0612 18.0201 58.0612 18.0505 58.0661 18.0803C57.5061 18.0803 56.9561 18.0303 56.4061 17.9703C53.426 17.666 50.5659 16.6359 48.0761 14.9703L47.4861 14.4803H45.2461C45.871 15.0821 46.5395 15.6369 47.2461 16.1403C49.9315 17.9556 53.0224 19.0821 56.2461 19.4203C57.093 19.5118 57.9442 19.5585 58.7961 19.5603C61.1449 19.5538 63.4811 19.2172 65.7361 18.5603H65.7661ZM66.5161 10.6403C67.0923 10.6038 67.6697 10.6892 68.2107 10.8907C68.7518 11.0923 69.2442 11.4057 69.6561 11.8103C70.3525 12.6855 70.7299 13.7718 70.7261 14.8903C69.0506 15.9124 67.2395 16.6934 65.3461 17.2103C64.0181 17.5859 62.6595 17.8436 61.2861 17.9803C61.2861 15.9803 61.5861 13.0603 62.9061 11.8303C63.9085 10.9786 65.2037 10.5517 66.5161 10.6403Z" fill="#B92716"/>
</svg>
