<?xml version="1.0" encoding="utf-8"?>
<!-- Generator: Adobe Illustrator 24.3.0, SVG Export Plug-In . SVG Version: 6.00 Build 0)  -->
<svg version="1.1" id="Layer_1" xmlns="http://www.w3.org/2000/svg" xmlns:xlink="http://www.w3.org/1999/xlink" x="0px" y="0px"
	 viewBox="0 0 120 36" style="enable-background:new 0 0 120 36;" xml:space="preserve">
<style type="text/css">
	.st0{fill:url(#SVGID_1_);}
</style>
<linearGradient id="SVGID_1_" gradientUnits="userSpaceOnUse" x1="59.59" y1="6.1878" x2="59.59" y2="23.3139">
	<stop  offset="0" style="stop-color:#FFFFFF"/>
	<stop  offset="1" style="stop-color:#3D2D60"/>
</linearGradient>
<path class="st0" d="M73.2,12.3c-0.1-0.3-0.1-0.5-0.2-0.8c0-0.1-0.1-0.3-0.1-0.4C72.6,10.3,72,9.5,71.3,9c-0.7-0.6-1.5-1-2.4-1.2
	c-0.5-0.1-1-0.2-1.4-0.2c-0.4,0-0.8-0.1-1.2-0.1c-1.2-0.1-2.3,0.1-3.4,0.6c-1.1,0.4-2,1.1-2.8,2c-1.5,1.7-2.3,4.2-2.3,7.5
	c0,0,0,0.1,0,0.1c-0.5,0-1,0-1.5-0.1c0.3-1.3,0.4-2.7,0.4-4c0-1.9-0.2-3.7-0.7-5.5c-0.5-1.6-1.2-3-2.3-4.2c-1.1-1.2-2.4-2.1-3.9-2.8
	c-1.8-0.7-3.7-1-5.6-1h-3.6c-0.7,0-1.3,0-1.9,0.1c-0.3,0-0.6,0.1-0.8,0.1l0,0c-0.3,0-0.5,0-0.8,0.1v26.9c0.1,0,0.3,0,0.4,0.1
	c0.3,0,0.6,0.1,0.9,0.1l1.9,0.1c0.4,0,0.8,0,1.1,0c0.3,0,0.6,0,0.9,0h1.6c2,0.1,4.1-0.3,6-1.2c1.6-0.7,2.9-1.8,4-3.1
	c0.9-1.1,1.5-2.3,2-3.6c-1.1-0.1-2.2-0.3-3.2-0.6h-0.1c-0.3,0.8-0.7,1.6-1.2,2.3c-0.1,0.2-0.2,0.3-0.4,0.5c-0.1,0.1-0.3,0.3-0.4,0.4
	c-0.1,0.1-0.2,0.2-0.3,0.3c-0.3,0.3-0.6,0.5-1,0.8c-0.3,0.2-0.6,0.3-0.9,0.5c-1.4,0.7-2.9,1-4.5,0.9H41c-0.2,0-0.5,0-0.7-0.1V3
	L41,2.9l1-0.1h2.3c1.5,0,3,0.3,4.4,1c1.1,0.6,2.1,1.5,2.8,2.5c0.7,1,1.2,2.2,1.5,3.4c0.3,1.2,0.4,2.5,0.4,3.8c0,1.1-0.1,2.2-0.3,3.3
	c-1.8-0.5-3.6-1.3-5.2-2.4L47.2,14H45c0.6,0.6,1.3,1.2,2,1.7c2.7,1.8,5.8,2.9,9,3.3c0.4,0,0.8,0.1,1.2,0.1c0.4,0,0.9,0,1.3,0
	c2.3,0,4.7-0.3,6.9-1h0c2.9-0.8,5.6-2.2,8-4.1c0-0.1,0-0.2,0-0.3C73.4,13.2,73.4,12.7,73.2,12.3z M65.1,16.7
	c-0.5,0.1-1.1,0.3-1.6,0.4c-0.8,0.2-1.6,0.3-2.5,0.4c0-2,0.3-4.9,1.6-6.2c1-0.9,2.3-1.3,3.6-1.2c0.2,0,0.4,0,0.7,0
	c0.3,0,0.7,0.1,1,0.2c0.5,0.2,1,0.5,1.4,0.9c0.7,0.9,1.1,2,1.1,3.1C68.8,15.4,67,16.2,65.1,16.7z M13.3,13.9L12.1,17H12l-1.3-3
	L2.4,0.3H0v26.8h3v-18l-0.5-4h0.2L4,8.7l7.4,12.1h1l7-12.1l1.5-3.7H21l-0.4,4v18h3.2V0.3h-2.5L13.3,13.9z M26.8,17.5H34v-2.8h-7.2
	V17.5z M88.9,9.1c-0.5-0.6-1.2-1.1-2-1.3c-0.2-0.1-0.4-0.1-0.6-0.2c-0.2,0-0.4-0.1-0.7-0.1c-0.5-0.1-1-0.1-1.5-0.1
	c-0.1,0-0.3,0-0.4,0l-0.2,0c-0.2,0-0.5,0-0.7,0.1c-0.3,0-0.6,0.1-0.9,0.2c-0.5,0.1-1,0.3-1.4,0.5c-1,0.5-1.8,1.1-2.5,2h-0.2
	l-0.6-2.3h-2.1v19.1h3.1V14c0.3-1.1,1-2,1.9-2.8c1-0.8,2.1-1.1,3.3-1.1c0.5-0.1,1,0,1.4,0.2c0.1,0,0.3,0.1,0.4,0.2
	c0.6,0.3,1,0.7,1.4,1.2c0.7,1.4,1,3,0.9,4.5v10.9h3.1V15.5c0-1.3-0.1-2.6-0.4-3.9C89.9,10.7,89.5,9.9,88.9,9.1z M101.1,24.7
	c-0.6,0.2-1.1,0.2-1.7,0.2c-0.1,0-0.3,0-0.4,0c-0.2,0-0.3-0.1-0.5-0.2c-0.1,0-0.2-0.1-0.2-0.1c-0.1-0.1-0.2-0.1-0.2-0.2
	c-0.1-0.1-0.2-0.2-0.3-0.3c-0.4-0.9-0.6-1.8-0.5-2.8V10.6h5.2V7.9h-5.2V3.3l-3.1,0.9v3.8h-3v2.7h3v11.2c-0.1,1.5,0.2,3.1,1,4.4
	c0,0.1,0.1,0.1,0.2,0.2c0,0,0.1,0.1,0.1,0.1c0.1,0.1,0.2,0.2,0.3,0.3c0.3,0.2,0.6,0.4,0.9,0.5c0.6,0.2,1.2,0.3,1.8,0.3
	c0.5,0,1,0,1.4-0.1c0.1,0,0.3,0,0.4-0.1l0.3,0c0.2,0,0.4-0.1,0.5-0.1c0.8-0.2,1.5-0.5,2.3-0.8l-0.7-2.3
	C102.1,24.3,101.5,24.5,101.1,24.7z M115.6,24.9c0.1-0.1,0.2-0.3,0.3-0.4h0.2l0.8,2.7h2.3c-0.2-0.8-0.4-1.5-0.4-2.3
	c0-0.2,0-0.4-0.1-0.5c0-0.1,0-0.3,0-0.4l0-0.3c0-0.5,0-1,0-1.5v-0.3c0-1.2,0-2.5,0.1-3.9c0.1-1.5,0.1-2.9,0.1-4.5
	c0-0.7-0.1-1.4-0.2-2.1c-0.1-0.3-0.2-0.6-0.3-0.9c0-0.1-0.1-0.2-0.1-0.2c-0.1-0.1-0.1-0.2-0.2-0.3c-0.1-0.1-0.1-0.2-0.2-0.3
	c0-0.1-0.1-0.1-0.1-0.2c-0.5-0.6-1.1-1.1-1.8-1.4c-0.4-0.2-0.8-0.3-1.2-0.4c-0.6-0.1-1.3-0.2-2-0.2c-1.3,0-2.7,0.1-4,0.4
	c-1.2,0.2-2.3,0.7-3.4,1.3l0.9,2.3c0.4-0.2,0.8-0.4,1.2-0.6c0.5-0.2,1-0.3,1.5-0.4c0.5-0.1,1-0.2,1.5-0.3c0.5-0.1,0.9-0.1,1.4-0.1
	c1.1-0.1,2.2,0.2,3.1,0.9c0.6,0.8,0.9,1.9,0.8,2.9c0,0.6,0,1.3-0.1,2.1c-0.4,0-0.7-0.1-1.1-0.1h-1c-0.3,0-0.6,0-0.9,0
	c-0.4,0-0.8,0-1.2,0.1c-0.2,0-0.3,0-0.5,0c-0.4,0-0.8,0.1-1.2,0.2c-0.7,0.1-1.5,0.3-2.2,0.6c-0.1,0.1-0.2,0.1-0.4,0.2
	c-0.2,0.1-0.3,0.2-0.5,0.2c-0.1,0-0.1,0.1-0.2,0.1c-0.1,0-0.1,0.1-0.2,0.1c-0.1,0.1-0.3,0.2-0.4,0.3c-0.3,0.2-0.6,0.5-0.8,0.8
	l-0.1,0.2l-0.1,0.1L105,19c0,0-0.1,0.1-0.1,0.1c-0.5,0.9-0.7,1.8-0.7,2.8c0,0.8,0.1,1.5,0.4,2.3c0.3,0.6,0.7,1.2,1.2,1.7
	c0.5,0.5,1.1,0.8,1.8,1.1c0.7,0.3,1.5,0.4,2.2,0.4c0.7,0,1.5-0.1,2.2-0.3c0.6-0.2,1.1-0.4,1.7-0.7c0.5-0.2,0.9-0.6,1.2-0.9
	c0.1-0.1,0.1-0.1,0.2-0.2C115.4,25.2,115.5,25,115.6,24.9z M114.2,23.7c-0.3,0.2-0.6,0.4-0.9,0.5c-0.2,0.1-0.4,0.1-0.5,0.2
	c-0.6,0.2-1.3,0.3-1.9,0.3l0,0c-0.9,0-1.8-0.3-2.5-0.9c-0.3-0.3-0.6-0.6-0.7-1c-0.2-0.4-0.3-0.8-0.3-1.2c0-0.6,0.2-1.1,0.5-1.6
	l0.1-0.1c0.1-0.1,0.2-0.2,0.3-0.3c0.1-0.1,0.2-0.2,0.4-0.3c0.2-0.2,0.5-0.3,0.7-0.4c0.2-0.1,0.4-0.2,0.7-0.2
	c0.4-0.1,0.9-0.2,1.3-0.3c0.8-0.1,1.5-0.1,2.3-0.1h1.1l0.2,0l0.3,0l0.1,0l0.2,0c0.1,0,0.2,0,0.3,0v3.2
	C115.4,22.5,114.9,23.2,114.2,23.7z M61.7,31.6c-0.2-0.2-0.4-0.3-0.7-0.3c-0.2,0-0.3,0-0.5-0.1l-0.1,0l-0.2,0h-1.5v4.5h1.6
	c0.1,0,0.1,0,0.2,0l0.1,0l0.1,0c0.2,0,0.3-0.1,0.5-0.1c0.3-0.1,0.5-0.3,0.7-0.5c0.3-0.5,0.5-1.1,0.5-1.6c0-0.4-0.1-0.8-0.2-1.1
	C62.1,32,62,31.8,61.7,31.6z M61.8,34.5c0,0.1,0,0.1-0.1,0.1c0,0.1-0.1,0.1-0.1,0.2c-0.1,0.1-0.2,0.2-0.3,0.3
	c-0.3,0.1-0.6,0.2-0.9,0.2h-1l0-3.4h1c0.3,0,0.6,0,0.8,0.1c0.2,0.1,0.3,0.2,0.4,0.3c0.1,0.2,0.2,0.3,0.2,0.5
	c0.1,0.2,0.1,0.5,0.1,0.7C61.9,33.8,61.9,34.1,61.8,34.5z M65,33.7h2.5v-0.5H65v-1.4h2.7v-0.5h-3.2v4.5h3.3v-0.5H65V33.7z
	 M72.7,34.8l-2.4-3.5h-0.6v4.5h0.6v-3.5l2.4,3.5h0.6v-4.5h-0.6V34.8z M75.1,31.8h1.5v4h0.6v-4h1.5v-0.5h-3.6V31.8z M81.6,31.2
	l-1.7,4.5h0.6l0.5-1.4h1.9l0.5,1.4h0.7l-1.8-4.5H81.6z M81.2,33.9l0.5-1.3c0.1-0.3,0.2-0.6,0.2-0.9l0.1,0.2l0.1,0.2
	c0,0.1,0.1,0.3,0.2,0.5l0.5,1.2H81.2z M86.3,31.2h-0.6v4.5h2.8v-0.5h-2.2V31.2z M96.8,34.2c0,0.2-0.1,0.3-0.1,0.5
	c-0.1,0.1-0.2,0.3-0.3,0.4c-0.2,0.2-0.6,0.3-0.9,0.3c-0.2,0-0.4,0-0.5-0.1c-0.2-0.1-0.3-0.2-0.5-0.3c-0.2-0.2-0.3-0.4-0.3-0.7
	c0-0.1,0-0.2-0.1-0.3c0-0.1,0-0.3,0-0.4c0-0.5,0.1-0.9,0.4-1.3l0-0.1l0,0c0,0,0.1-0.1,0.1-0.1c0.1-0.1,0.2-0.1,0.3-0.2
	c0.2-0.1,0.4-0.1,0.6-0.1c0.3,0,0.6,0.1,0.8,0.3c0.2,0.2,0.4,0.4,0.4,0.7l0.6-0.1c-0.1-0.4-0.3-0.7-0.6-1c-0.3-0.2-0.5-0.3-0.9-0.3
	c-0.1,0-0.2,0-0.3,0c-0.6,0-1.1,0.2-1.5,0.6c-0.2,0.2-0.4,0.5-0.5,0.8c-0.1,0.2-0.1,0.3-0.1,0.5c0,0.1,0,0.3,0,0.4
	c0,0.6,0.2,1.2,0.5,1.7c0,0,0.1,0.1,0.1,0.1c0.1,0.1,0.1,0.1,0.2,0.2c0.1,0.1,0.3,0.2,0.5,0.3c0.3,0.1,0.6,0.2,0.9,0.1
	c0.4,0,0.9-0.1,1.2-0.4c0.3-0.3,0.6-0.7,0.6-1.1L96.8,34.2L96.8,34.2z M99.9,31.2h-0.6v4.5h2.8v-0.5h-2.2V31.2z M104,35.7h0.6v-4.5
	H104V35.7z M109.8,34.8l-2.4-3.5h-0.6v4.5h0.6v-3.5l2.4,3.5h0.6v-4.5h-0.6V34.8z M112.6,35.7h0.6v-4.5h-0.6V35.7z M118.6,34.2
	L118.6,34.2c-0.1,0.3-0.3,0.6-0.5,0.8c-0.2,0.2-0.6,0.3-0.9,0.3c-0.2,0-0.4,0-0.5-0.1c-0.2-0.1-0.3-0.2-0.5-0.3
	c-0.3-0.4-0.4-0.9-0.4-1.4c0-0.5,0.1-1,0.4-1.4c0.1-0.2,0.3-0.3,0.5-0.4c0,0,0.1,0,0.1,0c0.1,0,0.1,0,0.2,0c0.1,0,0.2,0,0.3,0
	c0.3,0,0.6,0.1,0.8,0.3c0.2,0.2,0.4,0.4,0.4,0.7l0.6-0.1c0-0.2-0.1-0.4-0.2-0.5c-0.1-0.2-0.2-0.3-0.4-0.4c-0.3-0.2-0.7-0.4-1.1-0.3
	c-0.6,0-1.1,0.2-1.5,0.6c-0.2,0.2-0.4,0.5-0.5,0.8c-0.1,0.3-0.2,0.6-0.1,0.9c0,0.6,0.2,1.2,0.5,1.7c0.2,0.2,0.4,0.4,0.7,0.5
	c0.3,0.1,0.6,0.2,0.9,0.1c0.4,0,0.9-0.1,1.2-0.4c0.3-0.3,0.6-0.7,0.6-1.1L118.6,34.2z M70,27c1-0.3,2-0.8,2.9-1.5l-1.2-2.2
	c-0.6,0.5-1.3,0.9-2,1.1l0.1,0c-0.8,0.3-1.7,0.5-2.6,0.5c-1,0-1.9-0.1-2.8-0.5c-0.8-0.3-1.4-0.8-1.9-1.4c-0.5-0.7-0.9-1.4-1.1-2.2
	c-0.1-0.2-0.1-0.4-0.1-0.7c0-0.2-0.1-0.3-0.1-0.5c-1,0.1-2.1,0.2-3.2,0.1c0.1,0.6,0.2,1.3,0.3,1.9c0.2,0.6,0.4,1.2,0.7,1.8
	c0.2,0.5,0.5,0.9,0.8,1.3c0.7,0.9,1.6,1.6,2.6,2c1.2,0.5,2.5,0.7,3.8,0.7C67.5,27.5,68.8,27.3,70,27z"/>
</svg>
