<svg width="405" height="169" viewBox="0 0 405 169" fill="none" xmlns="http://www.w3.org/2000/svg">
<path d="M391.367 133.892C391.367 145.372 381.052 154.69 368.452 154.85H240.551V167.825H368.722L368.665 167.879H370.025C379.136 168.036 387.941 164.553 394.498 158.196C401.055 151.838 404.834 143.126 405 133.972C405 116.218 391.98 102.441 373.104 100.199C371.718 99.9706 362.415 98.8029 352.592 97.587L327.788 94.5387C327.788 94.5387 314.311 93.0034 301.81 91.5466L300.455 91.3885C291.115 90.2984 282.622 89.2858 281.137 89.0387C276.356 88.3713 263.383 86.8496 260.138 85.7015C258.503 85.2149 257.075 84.2007 256.068 82.8159C255.066 81.4308 254.542 79.752 254.583 78.0391C254.64 75.714 255.606 73.5047 257.272 71.8902C258.321 70.8743 259.593 70.1456 260.974 69.7519L261.353 69.6532L261.664 69.585L262.074 69.5137L262.292 69.4834C262.687 69.4335 263.087 69.4103 263.492 69.4156H308.33V56.3601H260.486C254.905 56.479 249.599 58.7965 245.706 62.812C241.812 66.8279 239.642 72.22 239.673 77.8256C239.673 83.806 240.338 88.5848 245.202 92.1893C249.179 95.2848 253.773 97.4713 258.679 98.5966C262.178 99.4472 265.729 100.054 269.311 100.412C276.533 101.335 282.586 102.078 287.99 102.716C295.393 103.591 301.566 104.268 307.847 104.939L314.866 105.683C318.853 106.105 323.058 106.549 327.788 107.06C353.382 110.211 362.871 111.172 362.871 111.172C366.942 111.866 370.077 112.426 373.213 113.201C378.145 114.031 382.64 116.541 385.947 120.309C389.254 124.077 391.165 128.873 391.367 133.892Z" fill="white"/>
<path d="M218.596 0H205.68V42.6905H218.596V0Z" fill="white"/>
<path d="M205.597 56.7071H218.57V168.653H205.597V56.7071Z" fill="white"/>
<path d="M100.288 169H87.1539V76.1703C87.1903 75.67 87.1799 75.1694 87.1176 74.675C87.0242 73.8945 86.8113 73.1299 86.4894 72.408C85.9599 71.2289 85.15 70.2007 84.1273 69.4156C82.6114 68.4131 80.81 67.9353 78.9982 68.0539C76.579 68.0539 74.7983 68.0539 70.8632 74.1679L15.7872 169H0L13.2901 145.746C18.3414 139.685 55.0501 74.1679 55.0501 74.1679C62.0377 62.8743 67.2499 56.5201 75.5147 56.0931C77.991 55.8393 80.4829 55.8393 82.9593 56.0931C86.396 56.4331 89.6666 57.7478 92.3921 59.8841C93.7938 60.9599 95.0345 62.2274 96.0728 63.6454C96.6906 64.4862 97.2357 65.3802 97.7081 66.3185C99.3123 69.1105 100.148 72.28 100.127 75.5029C100.268 94.8666 100.226 106.242 100.179 118.951C100.153 125.832 100.127 133.105 100.127 142.249C109.778 127.164 139.468 74.2211 139.468 74.2211C146.404 62.9277 151.642 56.5735 159.933 56.1466C162.43 55.8588 164.953 55.8321 167.455 56.0664C170.892 56.4259 174.157 57.7386 176.893 59.8574C179.126 61.5713 180.943 63.7712 182.209 66.2917C183.808 69.0864 184.649 72.2529 184.654 75.4761C184.795 99.0646 184.753 115.968 184.706 134.86C184.68 145.091 184.654 155.905 184.654 168.68H171.707V76.1703C171.8 74.8804 171.567 73.5885 171.037 72.4097C170.513 71.2309 169.698 70.2023 168.68 69.4156C167.154 68.4255 165.358 67.9487 163.546 68.0539C161.127 68.0539 159.346 68.0539 155.416 74.1679L100.288 169Z" fill="white"/>
<path fill-rule="evenodd" clip-rule="evenodd" d="M320.634 57.4812V69.2285L322.524 69.2819V64.2894H323.64C324.18 64.2473 324.714 64.3986 325.156 64.7166C325.971 65.4757 326.635 66.3814 327.123 67.3865L328.156 69.2285H330.472L329.034 66.9325C328.556 66.0894 327.975 65.3091 327.305 64.6097C327.149 64.4605 326.978 64.3298 326.791 64.2193C326.64 64.1316 326.485 64.0567 326.324 63.9957C327.237 63.9521 328.104 63.5606 328.743 62.901C329.044 62.6106 329.278 62.2616 329.439 61.876C329.599 61.4905 329.677 61.0763 329.672 60.6584C329.657 60.035 329.454 59.4304 329.096 58.922C328.738 58.4133 328.234 58.0235 327.653 57.8015C326.672 57.5444 325.659 57.4362 324.647 57.4812H320.634ZM324.808 62.6341H322.524V59.0833H324.678C325.311 59.0452 325.95 59.1084 326.562 59.2701C326.791 59.3548 326.999 59.4878 327.17 59.6586C327.243 59.7277 327.305 59.8033 327.362 59.8841C327.559 60.1539 327.663 60.4831 327.653 60.8185C327.663 61.0675 327.622 61.3161 327.518 61.5433C327.414 61.7708 327.263 61.9709 327.066 62.1267C326.391 62.5438 325.597 62.7224 324.808 62.6341Z" fill="white"/>
<path fill-rule="evenodd" clip-rule="evenodd" d="M330.736 53.6902C329.106 52.7858 327.279 52.2996 325.42 52.2751C323.557 52.3312 321.74 52.8543 320.13 53.7968C318.402 54.7064 316.979 56.1091 316.039 57.8283C315.095 59.4982 314.591 61.382 314.575 63.3016C314.586 64.099 314.679 64.89 314.861 65.6605C315.105 66.703 315.5 67.7081 316.039 68.6412C316.964 70.3444 318.355 71.7442 320.052 72.6727C321.698 73.6185 323.562 74.1161 325.462 74.1161C327.357 74.1161 329.221 73.6185 330.871 72.6727C331.681 72.2317 332.424 71.6845 333.078 71.0487C333.799 70.3464 334.422 69.5358 334.91 68.6412C335.461 67.6746 335.86 66.6333 336.099 65.5542C336.271 64.7782 336.359 63.9827 336.359 63.1813C336.359 61.2656 335.86 59.3835 334.91 57.7217C333.945 55.9947 332.491 54.5923 330.736 53.6902ZM320.956 55.2653C322.316 54.492 323.858 54.0872 325.42 54.0908C326.993 54.1185 328.535 54.5604 329.885 55.3722C331.318 56.1407 332.502 57.3088 333.285 58.7362C334.075 60.1292 334.495 61.7004 334.511 63.3016C334.505 64.8926 334.095 66.456 333.317 67.8401C332.538 69.2666 331.365 70.4353 329.937 71.2041C328.572 71.9889 327.025 72.4032 325.446 72.4058C323.863 72.4028 322.306 71.9889 320.93 71.2041C319.507 70.4268 318.339 69.2601 317.55 67.8401C316.761 66.4554 316.341 64.8858 316.341 63.2882C316.341 61.6906 316.761 60.121 317.55 58.7362C318.324 57.2693 319.507 56.0625 320.956 55.2653Z" fill="white"/>
</svg>
