<svg width="532" height="174" viewBox="0 0 532 174" fill="none" xmlns="http://www.w3.org/2000/svg">
<path d="M265.201 74.6627H265.385V30.3906H276.14V94.2433H265.385L234.907 47.3235H234.723V94.2433H223.971V30.3906H236.506L265.201 74.6627Z" fill="white"/>
<path fill-rule="evenodd" clip-rule="evenodd" d="M283.818 71.0298C283.818 55.6361 293.159 46.2768 305.877 46.2768C318.6 46.2768 327.752 55.4514 327.752 70.7835C327.752 86.1155 318.416 95.4748 305.693 95.4748C292.914 95.4748 283.818 86.4234 283.818 71.0298ZM294.697 70.9066C294.697 80.6354 299.242 86.1771 305.817 86.1771C312.453 86.1155 317.061 80.5738 317.061 70.9066C317.061 61.2393 312.513 55.6361 305.877 55.6361C299.242 55.6361 294.697 61.1778 294.697 70.9066Z" fill="white"/>
<path fill-rule="evenodd" clip-rule="evenodd" d="M346.005 51.8185C349.567 48.2472 354.36 46.2153 359.397 46.2768C371.382 46.2768 379 55.2667 379 70.3524C379 85.4998 370.889 95.5363 358.723 95.5363C353.438 95.598 348.461 93.1965 345.203 89.071L344.775 94.2433H335.25V30.3906H346.005V51.8185ZM346.005 80.8201C348.521 84.0835 352.332 86.054 356.511 86.1771C363.7 86.1771 368.124 80.1427 368.124 70.6603C368.124 61.1778 363.821 55.5745 356.448 55.5745C352.332 55.6361 348.521 57.6065 346.005 60.8084V80.8201Z" fill="white"/>
<path fill-rule="evenodd" clip-rule="evenodd" d="M385.143 71.2144C385.143 56.2518 393.87 46.2768 406.833 46.2768C419.432 46.2768 427.482 55.6976 427.482 70.6603V74.909H396.142C397.248 82.6673 401.243 86.7312 408.188 86.7312C412.98 86.5465 417.524 84.6377 421.091 81.4358L425.883 89.071C420.782 93.3813 414.391 95.7211 407.755 95.6595C393.87 95.6595 385.143 86.1771 385.143 71.2144ZM406.529 54.7125C400.566 54.7125 396.391 59.8231 396.082 67.3969H416.727C416.482 59.6385 412.487 54.7125 406.529 54.7125Z" fill="white"/>
<path d="M449.97 85.8692C451.2 85.8076 452.427 85.6229 453.596 85.315L454.454 93.5659C451.753 94.4281 448.864 94.9206 445.975 94.9823C445.298 95.1054 444.561 95.0438 443.823 94.9823C438.542 94.3049 434.855 89.5021 435.528 84.2682V30.3906H446.283V81.99C446.283 84.6377 447.51 85.8692 449.97 85.8692Z" fill="white"/>
<path fill-rule="evenodd" clip-rule="evenodd" d="M256.413 138.515V138.7C263.606 140.362 268.583 147.013 268.15 154.463C268.15 165.239 260.04 172.196 247.321 172.196H223.787V108.467H246.828C258.321 108.467 265.634 114.747 265.634 124.599C265.938 130.757 262.191 136.36 256.413 138.515ZM246.524 113.885H229.994V136.299H246.952C254.754 136.299 259.671 132.296 259.671 125.277C259.671 118.319 254.57 113.885 246.524 113.885ZM229.93 166.532H247.321C256.477 166.532 262.067 161.667 262.067 153.909C262.067 146.212 256.662 141.717 247.321 141.717H229.93V166.532Z" fill="white"/>
<path d="M280.933 109.083H281.238C283.389 109.206 285.048 110.991 284.988 113.147C284.988 115.425 283.145 117.21 280.933 117.21C278.657 117.21 276.878 115.363 276.878 113.147C276.878 110.868 278.721 109.083 280.933 109.083Z" fill="white"/>
<path d="M283.882 125.338V172.012H277.984V125.338H283.882Z" fill="white"/>
<path fill-rule="evenodd" clip-rule="evenodd" d="M293.038 148.86C293.038 134.082 301.454 124.168 313.868 124.168C326.157 124.168 334.452 133.836 334.452 148.613C334.452 163.391 325.973 173.243 313.619 173.243C301.269 173.243 293.038 163.638 293.038 148.86ZM299.121 148.737C299.121 160.497 304.896 167.948 313.804 167.948C322.715 167.886 328.49 160.559 328.49 148.86C328.49 137.099 322.655 129.648 313.743 129.648C304.835 129.648 299.121 136.976 299.121 148.737Z" fill="white"/>
<path d="M346.309 148.86C346.309 160.374 351.903 168.133 360.443 168.133C365.972 168.133 370.336 164.623 373.714 157.788L378.815 160.374C374.76 168.871 368.429 173.305 360.567 173.305C348.585 173.305 340.535 163.699 340.535 148.921C340.535 134.143 348.83 124.168 361.12 124.168C368.922 124.23 375.866 129.156 378.507 136.545L373.285 138.946C371.687 133.405 366.65 129.525 360.871 129.402C352.088 129.402 346.309 137.345 346.309 148.86Z" fill="white"/>
<path fill-rule="evenodd" clip-rule="evenodd" d="M421.704 139.5V159.758C421.704 165.916 422.317 167.948 424.901 170.041L421.151 173.366C418.446 172.135 416.543 169.672 416.05 166.778C411.934 170.903 406.28 173.243 400.446 173.366C390.797 173.366 384.529 167.64 384.529 158.773C384.529 148.49 392.087 144.734 415.805 143.38V139.87C415.805 132.727 412.303 129.402 404.806 129.402C398.847 129.525 393.069 131.373 388.092 134.574L386.004 129.648C391.963 126.2 398.663 124.292 405.543 124.168C416.418 124.168 421.704 129.033 421.704 139.5ZM401.736 168.317C407.142 168.256 412.303 165.793 415.805 161.667V147.628C395.958 148.921 390.428 151.384 390.428 158.712C390.428 164.807 394.792 168.317 401.736 168.317Z" fill="white"/>
<path d="M439.463 125.4V132.789C442.533 127.493 448.127 124.23 454.21 124.107C455.56 124.168 456.975 124.292 458.389 124.476V130.326C456.975 130.08 455.5 129.895 454.025 129.895C448.063 130.08 442.597 133.281 439.463 138.33V172.073H433.565V125.4H439.463Z" fill="white"/>
<path fill-rule="evenodd" clip-rule="evenodd" d="M459.679 149.106C459.679 134.267 467.91 124.23 480.08 124.23C491.877 124.23 499.494 133.774 499.618 148.49V151.2H465.638C466.436 161.975 472.214 168.133 481.186 168.133C486.407 168.071 491.384 165.916 495.07 162.221L497.896 166.532C493.411 170.965 487.268 173.49 480.937 173.49C467.91 173.49 459.679 163.945 459.679 149.106ZM480.08 129.648C471.781 129.648 466.131 136.36 465.638 146.581L493.78 146.766C493.411 136.299 488.374 129.648 480.08 129.648Z" fill="white"/>
<path d="M506.807 127.37H502.015V125.092H513.752V127.37H509.143V141.04H506.807V127.37Z" fill="white"/>
<path d="M524.194 132.543L529.42 125.338H532V141.04H529.42V129.279L524.194 136.299L518.973 129.279V141.04H516.392V125.338H518.973L524.194 132.543Z" fill="white"/>
<path d="M149.416 25.5082V147.652C149.416 149.444 148 150.866 146.213 150.866H123.114C115.599 150.866 113.074 149.877 110.672 146.477L53.6939 67.3559C52.3387 66.2433 50.306 66.4287 49.1357 67.7886C48.6429 68.3449 48.3965 69.0867 48.3965 69.8284V91.9577C48.3965 93.0085 48.8277 94.0593 49.5668 94.8011L97.4897 163.6C101.617 169.163 108.269 172.192 115.168 171.573H167.403C169.189 171.573 170.606 170.152 170.606 168.359V4.24433C170.606 2.45174 169.189 1.03003 167.403 1.03003H122.56C120.774 1.03003 119.357 2.45174 119.357 4.24433V19.0796C119.357 20.8722 120.774 22.2939 122.56 22.2939H146.152C148 22.2939 149.416 23.7156 149.416 25.5082Z" fill="#CE0909"/>
<path d="M22.0351 146.786V24.6428C22.0351 22.8502 23.4519 21.4285 25.2382 21.4285H48.3989C55.9138 21.4285 58.3777 22.3557 60.78 25.8173L117.573 105.186C118.866 106.422 120.961 106.422 122.193 105.124C122.747 104.506 123.055 103.764 123.117 102.96V80.3986C123.117 79.4095 122.809 78.4823 122.193 77.7406L74.2698 8.94217C70.0812 3.31714 63.3671 0.350096 56.4065 0.968231H4.17182C2.38549 0.968231 0.96875 2.45175 0.96875 4.24435V168.236C0.96875 170.028 2.38549 171.45 4.17182 171.45H49.0148C50.8012 171.45 52.2179 170.028 52.2179 168.236V153.4C52.2179 151.608 50.8012 150.186 49.0148 150.186H25.3614C23.5751 150.248 22.0967 148.826 22.0351 147.095C22.0351 146.972 22.0351 146.848 22.0351 146.786Z" fill="#CE0909"/>
</svg>
