<svg width="65" height="51" viewBox="0 0 65 51" fill="none" xmlns="http://www.w3.org/2000/svg">
<path d="M9.75 13.2281V6.375C9.75 2.86875 12.675 0 16.25 0H48.75C52.325 0 55.25 2.86875 55.25 6.375V13.26C51.48 14.5669 48.75 18.0731 48.75 22.2169V28.6875H16.25V22.185C16.25 18.0731 13.52 14.535 9.75 13.2281ZM58.5 15.9375C54.925 15.9375 52 18.8062 52 22.3125V31.875H13V22.3125C13 18.8062 10.1075 15.9375 6.5 15.9375C2.8925 15.9375 0 18.8062 0 22.3125V38.25C0 41.7562 2.925 44.625 6.5 44.625V51H13V44.625H52V51H58.5V44.625C62.075 44.625 65 41.7562 65 38.25V22.3125C65 18.8062 62.075 15.9375 58.5 15.9375Z" fill="url(#paint0_linear_197_18393)"/>
<defs>
<linearGradient id="paint0_linear_197_18393" x1="32.5" y1="0" x2="32.5" y2="51" gradientUnits="userSpaceOnUse">
<stop stop-color="#D9E9EE"/>
<stop offset="1" stop-color="#1BBFEE"/>
</linearGradient>
</defs>
</svg>
