<svg width="72" height="46" viewBox="0 0 72 46" fill="none" xmlns="http://www.w3.org/2000/svg">
<path d="M49.0909 19.7143C54.5236 19.7143 58.8764 15.3114 58.8764 9.85714C58.8764 4.40286 54.5236 0 49.0909 0C43.6582 0 39.2727 4.40286 39.2727 9.85714C39.2727 15.3114 43.6582 19.7143 49.0909 19.7143ZM22.9091 19.7143C28.3418 19.7143 32.6945 15.3114 32.6945 9.85714C32.6945 4.40286 28.3418 0 22.9091 0C17.4764 0 13.0909 4.40286 13.0909 9.85714C13.0909 15.3114 17.4764 19.7143 22.9091 19.7143ZM22.9091 26.2857C15.2836 26.2857 0 30.13 0 37.7857V46H45.8182V37.7857C45.8182 30.13 30.5345 26.2857 22.9091 26.2857ZM49.0909 26.2857C48.1418 26.2857 47.0618 26.3514 45.9164 26.45C49.7127 29.21 52.3636 32.9229 52.3636 37.7857V46H72V37.7857C72 30.13 56.7164 26.2857 49.0909 26.2857Z" fill="url(#paint0_linear_197_18391)"/>
<defs>
<linearGradient id="paint0_linear_197_18391" x1="36" y1="0" x2="36" y2="46" gradientUnits="userSpaceOnUse">
<stop stop-color="#D9E9EE"/>
<stop offset="1" stop-color="#1BBFEE"/>
</linearGradient>
</defs>
</svg>
