<?xml version="1.0" encoding="utf-8"?>
<!-- Generator: Adobe Illustrator 24.3.0, SVG Export Plug-In . SVG Version: 6.00 Build 0)  -->
<svg version="1.1" id="Layer_1" xmlns="http://www.w3.org/2000/svg" xmlns:xlink="http://www.w3.org/1999/xlink" x="0px" y="0px"
	 viewBox="0 0 122 131" style="enable-background:new 0 0 122 131;" xml:space="preserve">
<style type="text/css">
	.st0{fill:url(#SVGID_1_);}
</style>
<linearGradient id="SVGID_1_" gradientUnits="userSpaceOnUse" x1="60.9999" y1="132" x2="60.9999" y2="1" gradientTransform="matrix(1 0 0 -1 0 132)">
	<stop  offset="0" style="stop-color:#D9E9EE"/>
	<stop  offset="1" style="stop-color:#1BBFEE"/>
</linearGradient>
<path class="st0" d="M112.9,77.9l-5.4-3.6c6.9-3.3,11.5-10.5,11.5-18.6c0-11.5-9.5-20.9-21-20.9c-3.1,0-5.9,0.8-8.7,1.8V20.4
	c0-8.2-4.9-15.6-12.8-18.9C74.1,0.5,71.5,0,69,0c-5.6,0-10.7,2.3-14.6,6.1l-3.3,3.6c-1.8-0.5-3.6-0.5-5.4-0.5
	c-6.6,0-13,2.8-17.6,7.7L17.6,28.1c-1,1-1,2.6,0,3.6l1.8,1.8c-5.1,0.3-9.7,2.6-13.3,6.1C2.3,43.4,0,48.8,0,54.4s2,10.7,6.1,14.6
	l29.1,29.1l-3.1,5.6h-10c-1.5,0-2.6,1.3-2.6,2.6v22.2c0,1.5,1.3,2.6,2.6,2.6h73.6c1.5,0,2.6-1.3,2.6-2.6v-12.3c0.8,0,1.3,0,2,0
	c6.9,0,13.5-3.6,17.4-9.2C125.2,97.3,122.4,84.3,112.9,77.9z M116.5,105.2c-3.3,5.1-8.9,8.2-15.1,8.2c-1.5,0-3.1-0.3-4.6-0.5v15.6
	H23.2v-22.2h11.5l4.9-8.9h3.1v-0.8h-4.1L8.9,66.9C5.6,63.6,3.6,59,3.6,54.1c0-4.9,1.8-9.4,5.4-12.8C12.3,38,16.9,36,21.7,36
	c2,0,4.1,0.3,5.9,1l-7.4-7.2l10.5-11.2c4.1-4.3,9.7-6.6,15.6-6.6c2,0,4.1,0.3,6.1,0.8l4.3-4.6c3.3-3.3,7.9-5.4,12.5-5.4
	c2.3,0,4.6,0.5,6.6,1.3c6.6,2.8,11,9.2,11,16.3v20.9c3.1-2.6,6.9-3.8,11.2-3.8c10,0,18.1,8.2,18.1,18.1c0,8.9-6.4,16.3-14.8,17.9
	l9.7,6.4C119.8,85.5,122.1,97,116.5,105.2z M75.9,105H44.2l-4.9,8.9h-8.4v6.4h58v-6.1h-8.2L75.9,105z M107.1,86.6L79.2,68.2v-8.7
	h9.5c1.5,3.8,5.4,6.4,9.7,6.4c5.6,0,10.5-4.6,10.5-10.5s-4.6-10.5-10.5-10.5c-4.6,0-8.4,3.1-9.7,7.2h-9.2V20.4
	c0-4.1-2.3-7.7-6.1-9.2c-3.8-1.5-7.9-0.5-10.7,2.3L54.2,22c-5.4-3.8-13-3.3-17.9,1.8l-5.4,5.6l21,20.7l5.6-6.1
	c4.3-4.6,4.9-11.5,1.5-16.6l8.4-8.7c1.3-1.3,2.6-0.8,2.8-0.5c0.5,0.3,1.8,0.8,1.8,2.6v47.8H49.8L28.6,47.2c-4.1-4.1-10.5-4.1-14.6,0
	c-4.1,4.1-4.1,10.5,0,14.6l27.3,27.3h8.7v9.7h19.4v-9.7h3.1l23,15.3c1.8,1.3,3.8,1.8,5.6,1.8c3.3,0,6.6-1.5,8.7-4.6
	C113.2,96.3,111.9,89.9,107.1,86.6z"/>
</svg>
