<?xml version="1.0" encoding="utf-8"?>
<!-- Generator: Adobe Illustrator 24.3.0, SVG Export Plug-In . SVG Version: 6.00 Build 0)  -->
<svg version="1.1" id="Layer_1" xmlns="http://www.w3.org/2000/svg" xmlns:xlink="http://www.w3.org/1999/xlink" x="0px" y="0px"
	 viewBox="0 0 121 131" style="enable-background:new 0 0 121 131;" xml:space="preserve">
<style type="text/css">
	.st0{fill:url(#SVGID_1_);}
</style>
<linearGradient id="SVGID_1_" gradientUnits="userSpaceOnUse" x1="60.4999" y1="132" x2="60.4999" y2="1" gradientTransform="matrix(1 0 0 -1 0 132)">
	<stop  offset="0" style="stop-color:#D9E9EE"/>
	<stop  offset="1" style="stop-color:#1BBFEE"/>
</linearGradient>
<path class="st0" d="M41.3,96.1c-2.1-4.8-5.6-7.6-8.2-8.9c1.3-3.3,2.8-7.4,7.2-9.4c1.8-0.8,2.6-2.8,1.8-4.8
	c-0.8-1.8-2.8-2.5-4.9-1.8c-7.7,3.3-10,10.4-11.3,14.8c0,0.3,0,0.3-0.3,0.5c-5.6,2.5-8.7,8.4-9,9.2c-0.5,1-0.5,2,0,2.8
	c-2.1,5.9-2.8,14.3,0.3,17.1c0.5,0.3,1.5,1.3,6.2,1.3c0.5,0,1,0,1.3,0c1.5,0,2.6-1.3,2.6-2.5c0-1.5-1-2.5-2.6-2.5
	c-1.5,0-3.1,0-3.8-0.3c-0.8-1.5-0.8-6.6,1-11.2c0.8-0.3,1.5-1,1.8-1.8c0.5-1.3,2.6-4.3,5.4-5.9c1.5,0.5,4.6,2.3,5.9,5.9
	c0.3,0.8,0.8,1.3,1.3,1.5c1.8,4.8,1.8,9.9,1,11.2c-0.8,0.3-2.3,0.3-3.8,0.3c-1.5,0-2.6,1-2.6,2.5c0,1.5,1,2.5,2.6,2.5
	c0.5,0,1,0,1.3,0c4.6,0,5.6-1,6.2-1.3c3.1-2.8,2.6-10.4,0.5-16.3C41.5,98.4,41.8,97.4,41.3,96.1z M76.4,73.7
	c-3.3,3.3-9,7.4-15.6,7.4c-6.7,0-11.3-3.3-16.1-7.6c0,4.3-1.8,5.6-5.6,6.9c0,0.3,0.3,1.8,1.8,3.3S60.5,103,60.5,103
	s18.7-18.1,20-19.6s1.5-2,1.5-3.3C82,80.3,76.9,79.3,76.4,73.7z M92.3,85.4c-0.5-5.1-3.3-9.9-7.2-12.5c-1.3-0.8-2.8-0.5-3.6,0.8
	c-0.8,1.3-0.5,2.8,0.8,3.6c2.6,1.5,4.4,4.8,4.9,8.4c-3.1,1-5.4,4.1-5.4,7.6c0,4.6,3.6,8.2,8.2,8.2c4.6,0,8.2-3.6,8.2-8.2
	C98.2,89.5,95.6,86.4,92.3,85.4z M90,96.3c-1.8,0-3.1-1.3-3.1-3.1c0-1.8,1.3-3.1,3.1-3.1c1.8,0,3.1,1.3,3.1,3.1
	C93,95.1,91.8,96.3,90,96.3z M38.4,54.3c0,0,6.9,21.7,21.8,21.7c15.6,0,22-21.4,22-21.4s3.1,2,4.4-4.3c1.3-6.4-1-7.6-1-7.6l-3.1,2.5
	c0,0-22.6-11.7-31.3-16.1c-8.7-4.3-15.1,7.9-14.4,14.5c-2.1-2-4.4,0.3-2.6,6.6C36.1,56.1,38.4,54.3,38.4,54.3z M120,103.7
	c-1.8-5.6-7.4-21.7-22.8-24c-2.1-2.5-5.4-10.2-1.3-34.2v-0.3v-0.3c0.3-16.3-3.6-29.1-11.5-37C78.9,2.8,72,0,64.1,0
	c-0.8,0-1.5,0-2.6,0c-0.8,0-1.8,0-2.6,0c-22.6,0-29.2,16.1-32,28c-1.5,6.4-1,14.8-0.5,23.7c0.8,11.2,1.3,22.7-2.6,28
	c-2.1,0.3-6.2,1.3-9.7,3.8C8.5,87.7,0,98.1,0,110.1C0,127.4,32.8,131,60.2,131c22,0,37.7-2.3,49.7-7.1
	C119.2,120,123,112.7,120,103.7z M108.9,121.6c-10.3,4.1-24.9,6.9-48.7,6.9c-23.8,0-57.7-3.3-57.7-18.4c0-10.7,7.9-20.4,13.3-24.5
	c3.8-2.8,9.5-3.6,9.5-3.6c9-9.9,0.5-38.7,4.1-53.5c3.6-14,10.5-26,29.7-26c0.8,0,1.8,0,2.6,0c0.8,0,1.5,0,2.3,0
	c17.4,0,29.7,15.5,29,42.8c-3.8,21.9-1.8,33.1,2.8,37c14.6,1.5,19.7,17.1,21.5,22.2C119.2,109.6,119.2,117.5,108.9,121.6z"/>
</svg>
